<svg width="204" height="64" viewBox="0 0 204 64" fill="none" xmlns="http://www.w3.org/2000/svg">
<path d="M25.7804 0H33.0735C33.4692 0 33.8084 0.330288 33.8084 0.715623V62.6445C33.8084 63.0299 33.4692 63.3602 33.0735 63.3602H25.7804C25.3847 63.3602 25.0455 63.0299 25.0455 62.6445V0.715623C25.0455 0.330288 25.3847 0 25.7804 0Z" fill="white"/>
<path fill-rule="evenodd" clip-rule="evenodd" d="M125.452 43.1576C125.452 40.7151 125.458 38.2787 125.465 35.8444V35.8268C125.477 30.9701 125.49 26.1215 125.452 21.2485C125.396 15.7437 120.873 12.3858 115.502 14.0372C114.763 14.2488 114.125 14.5254 113.278 14.892C113.023 15.0024 112.75 15.1209 112.449 15.2483V0.660575C112.449 0.27524 112.166 0 111.77 0H104.308C103.912 0 103.629 0.27524 103.629 0.660575C103.629 3.01034 103.617 15.4981 103.604 28.7548L103.603 29.0912C103.589 43.9978 103.573 59.775 103.573 63.14C103.573 63.5253 103.856 63.8005 104.251 63.8005H111.714C112.11 63.8005 112.392 63.5253 112.392 63.14V61.8739C112.548 61.9746 112.67 62.0552 112.775 62.1242C113.129 62.3567 113.283 62.4574 113.806 62.7546C118.498 65.2868 125.735 64.351 125.509 56.259C125.387 53.151 125.411 50.0149 125.434 46.8909C125.443 45.6439 125.452 44.3981 125.452 43.1576ZM116.576 50.534C116.576 54.7727 115.332 56.0938 112.336 55.6535V22.1293C114.88 21.4136 116.576 23.1201 116.576 27.4689V50.534Z" fill="white"/>
<path d="M203.245 62.6997L194.086 37.5428C194.03 37.3776 194.03 37.2125 194.086 37.1024L202.397 14.1474C202.567 13.707 202.227 13.2116 201.719 13.2116H194.086C193.804 13.2116 193.521 13.3767 193.408 13.707L190.581 21.5238L190.525 21.744L187.811 29.2856L187.867 0.715721C187.867 0.330386 187.585 0.055146 187.189 0.055146H179.726C179.331 0.055146 179.048 0.330386 179.048 0.715721V63.03C179.048 63.4153 179.331 63.6906 179.726 63.6906H187.132C187.528 63.6906 187.811 63.4153 187.811 63.03V45.5798L194.086 62.7547C194.086 62.7775 194.096 62.8003 194.107 62.8271C194.123 62.8648 194.143 62.9104 194.143 62.9749L194.312 63.2502C194.426 63.5254 194.708 63.6906 194.991 63.6906H202.623C203.075 63.6355 203.415 63.1951 203.245 62.6997Z" fill="white"/>
<path d="M163.404 14.949C163.463 14.8844 163.517 14.8257 163.84 14.6423C168.589 11.8348 175.938 12.9358 175.825 20.9728V62.9744C175.825 63.3046 175.543 63.6349 175.147 63.6349H167.628C167.232 63.6349 166.949 63.3597 166.949 62.9744V25.872C166.949 23.7252 165.932 22.1838 162.879 22.9545V62.9744C162.879 63.3597 162.596 63.6349 162.2 63.6349H154.794C154.398 63.6349 154.116 63.3597 154.116 62.9744C154.029 59.7271 154.075 36.061 154.101 22.5689V22.5516L154.102 22.4004C154.11 18.3632 154.116 15.2601 154.116 13.9266C154.116 13.5413 154.455 13.211 154.851 13.2661C154.851 13.2661 162.2 12.5504 162.822 15.3579C163.266 15.0983 163.338 15.0201 163.404 14.949Z" fill="white"/>
<path d="M77.1145 37.1568C77.0579 37.3219 77.0579 37.4871 77.1145 37.6522L86.2167 62.9192C86.3863 63.3596 86.0471 63.855 85.5383 63.855H78.4713C78.1887 63.855 77.906 63.6348 77.7929 63.3596L74.0616 53.0106L72.7047 48.2214L71.3479 53.0656L67.6165 63.3596C67.5035 63.6899 67.2208 63.855 66.9381 63.855H59.8712C59.3624 63.855 59.0232 63.3596 59.1928 62.9192L68.3515 37.6522C68.408 37.4871 68.408 37.3219 68.3515 37.1568L60.0408 14.0367C59.8712 13.5963 60.2104 13.1008 60.7192 13.1008H67.7861C68.0688 13.1008 68.3515 13.321 68.4646 13.5963L71.2913 21.4131L72.7613 26.5876L74.2312 21.4681L77.058 13.6513C77.171 13.321 77.4537 13.1559 77.7364 13.1559H84.8033C85.3121 13.1559 85.6513 13.6513 85.4817 14.0917L77.1145 37.1568Z" fill="white"/>
<path fill-rule="evenodd" clip-rule="evenodd" d="M10.9113 13.156C3.61827 13.156 0.169606 16.2387 0.169606 25.1564V30.386C0.169606 30.7713 0.508819 31.1016 0.904567 31.1016H8.02803C8.42378 31.1016 8.76299 30.7713 8.76299 30.386V25.6519C8.76299 21.7435 9.04567 20.6976 10.8548 20.6976C12.6639 20.6976 12.9466 21.6884 12.9466 25.6519V34.0742C12.9466 34.5146 12.5509 34.7898 12.1551 34.7898C4.74898 34.1292 0 37.8725 0 45.304V55.0475C0 61.0477 2.26142 63.8001 6.89732 63.8001C10.0068 63.8001 12.1551 62.3138 13.625 60.4422C13.8512 61.3229 14.1339 62.1486 14.36 62.8092C14.4731 63.0845 14.7557 63.2496 15.0384 63.2496H20.9181C21.3139 63.2496 21.6531 62.9193 21.6531 62.534V25.9822C21.6531 16.9543 18.8263 13.156 10.9113 13.156ZM12.9466 56.3686H9.61102C9.15874 56.3686 8.76299 55.9833 8.76299 55.5429V44.8636C8.76299 41.4506 9.66756 40.4047 12.1551 40.1845C12.5509 40.1295 12.9466 40.4598 12.9466 40.9001V56.3686Z" fill="white"/>
<path fill-rule="evenodd" clip-rule="evenodd" d="M37.144 25.5969C37.144 15.1929 41.5538 13.1561 47.9423 13.1561C54.2177 13.1011 58.7971 15.1929 58.7971 25.5419V40.1847C58.7971 40.57 58.4579 40.9003 58.0621 40.9003H46.5854C46.1897 40.9003 45.8505 41.2306 45.8505 41.6159V52.5154C45.8505 55.2678 46.1897 56.3137 47.9423 56.3137C49.6949 56.3137 50.0341 55.2678 50.0341 52.5154V45.5243C50.0341 45.139 50.3733 44.8087 50.7691 44.8087H58.0621C58.4579 44.8087 58.7971 45.139 58.7971 45.5243V51.4695C58.7971 61.8185 54.2743 63.9103 47.9423 63.9103C41.6103 63.9103 37.144 61.8185 37.144 51.4695V25.5969ZM50.0341 35.6157V24.496C50.0341 21.7436 49.5818 20.6977 47.9423 20.6977C46.3028 20.6977 45.8505 21.7436 45.8505 24.496V35.6157H50.0341Z" fill="white"/>
<path fill-rule="evenodd" clip-rule="evenodd" d="M139.869 13.156C132.576 13.156 129.127 16.2387 129.127 25.1014V30.3309C129.127 30.7163 129.466 31.0466 129.862 31.0466H136.985C137.381 31.0466 137.72 30.7163 137.72 30.3309V25.5968C137.72 21.6884 138.003 20.6425 139.812 20.6425C141.621 20.6425 141.904 21.6334 141.904 25.5968V34.0192C141.904 34.4595 141.565 34.7348 141.113 34.7348C133.763 34.0742 129.014 37.8175 129.014 45.304V55.0475C129.014 61.0477 131.275 63.8001 135.911 63.8001C139.021 63.8001 141.169 62.3138 142.639 60.4422L142.753 60.8893C142.955 61.685 143.185 62.5861 143.374 63.1395C143.487 63.4147 143.77 63.5799 144.052 63.5799H149.932C150.328 63.5799 150.667 63.2496 150.667 62.8643V25.9822C150.554 16.9543 147.784 13.156 139.869 13.156ZM141.848 56.3686H138.512C138.06 56.3686 137.664 55.9833 137.664 55.5429V44.8636C137.664 41.4506 138.568 40.4047 141.056 40.1845C141.452 40.1295 141.848 40.4598 141.848 40.9001V56.3686Z" fill="white"/>
<path d="M98.3718 55.543H91.1353C90.7395 55.543 90.4003 55.8733 90.3438 56.2586V63.1396C90.3438 63.525 90.683 63.8552 91.0788 63.8552H98.3718C98.7676 63.8552 99.1068 63.525 99.1068 63.1396V56.2586C99.1068 55.8733 98.7676 55.543 98.3718 55.543Z" fill="white"/>
</svg>
