<?xml version="1.0" encoding="UTF-8"?><svg id="Artwork" xmlns="http://www.w3.org/2000/svg" viewBox="0 0 715.55 183"><defs><style>.cls-1{fill:#ff2736;}.cls-1,.cls-2,.cls-3{stroke-width:0px;}.cls-2{fill:#00113f;}.cls-3{fill:#fff;}</style></defs><polyline class="cls-2" points="154.05 150.07 77.01 182.84 0 150.07 0 3.76 154.05 3.76 154.05 150.07"/><path class="cls-1" d="M101.85,148.11l-24.12-22.2c-.39-.36-.98-.36-1.37,0l-24.15,22.2c-.75.69-.26,1.94.76,1.94h48.12c1.02,0,1.51-1.25.76-1.94Z"/><path class="cls-3" d="M76.34,108.9l-22.58,20.86c-.75.69-1.95.11-1.88-.9l2.24-30.66c.04-.53-.33-1-.86-1.07l-30.39-4.64c-1-.15-1.3-1.46-.46-2.03l25.36-17.37c.44-.3.57-.88.31-1.34l-15.32-26.65c-.51-.88.33-1.92,1.3-1.63l29.39,9c.51.15,1.04-.1,1.24-.6l11.29-28.59c.37-.94,1.71-.94,2.08,0l11.29,28.59c.19.49.73.75,1.24.6l29.39-9c.97-.3,1.8.75,1.3,1.63l-15.32,26.65c-.26.46-.13,1.04.31,1.34l25.36,17.37c.84.57.54,1.88-.46,2.03l-30.39,4.64c-.52.08-.9.55-.86,1.07l2.24,30.66c.07,1.01-1.13,1.59-1.88.9l-22.58-20.86c-.39-.36-.99-.36-1.37,0Z"/><path class="cls-2" d="M210.71,52.43h22.76l4.67,14.38h14.28L230.69,3.76h-17.18l-21.76,63.04h14.28l4.68-14.38ZM222.35,18.17l7.75,23.86h-16l7.76-23.86h.49Z"/><path class="cls-2" d="M298.15,66.81V19.52h-13.11v27.15c.02,2.11-.4,3.89-1.25,5.32-.85,1.44-1.96,2.52-3.34,3.25s-2.85,1.09-4.43,1.09c-2.48,0-4.46-.81-5.94-2.43-1.48-1.62-2.23-3.83-2.25-6.62v-27.77h-13.11v30.11c.02,3.69.7,6.86,2.05,9.51,1.34,2.65,3.22,4.69,5.62,6.12,2.4,1.44,5.18,2.15,8.34,2.15,3.55,0,6.56-.84,9.04-2.52,2.47-1.68,4.24-3.91,5.31-6.68h.49v8.59h12.59Z"/><path class="cls-2" d="M335.14,65.77c3.15-1.3,5.63-3.12,7.45-5.46,1.82-2.34,2.72-5.06,2.72-8.16,0-3.41-1.13-6.16-3.39-8.25-2.26-2.09-5.68-3.61-10.28-4.55l-8.56-1.72c-2.2-.47-3.75-1.1-4.65-1.88-.9-.78-1.35-1.73-1.35-2.86,0-1.42.7-2.55,2.09-3.4s3.11-1.28,5.14-1.28c1.52,0,2.83.25,3.93.75,1.1.5,1.99,1.17,2.66,2,.68.83,1.12,1.76,1.32,2.79l12-.74c-.58-4.35-2.58-7.79-6.02-10.31-3.44-2.53-8.14-3.79-14.11-3.79-4.04,0-7.57.6-10.57,1.79-3.01,1.19-5.34,2.88-6.99,5.08-1.65,2.2-2.48,4.81-2.48,7.85,0,3.53,1.12,6.43,3.37,8.71,2.25,2.28,5.68,3.88,10.3,4.8l8.19,1.63c2.05.41,3.57,1,4.56,1.77s1.49,1.75,1.51,2.94c-.02,1.42-.73,2.57-2.14,3.46-1.41.89-3.26,1.34-5.56,1.34s-4.26-.5-5.76-1.49c-1.5-.99-2.44-2.45-2.83-4.36l-12.9.68c.64,4.51,2.81,8.08,6.51,10.7,3.7,2.62,8.69,3.92,14.95,3.92,4.1,0,7.73-.65,10.88-1.96Z"/><path class="cls-2" d="M373.97,66.94c1.19-.28,2.11-.52,2.77-.72l-2.06-9.76c-.33.06-.8.15-1.42.26-.62.11-1.23.17-1.85.17-.88,0-1.66-.13-2.32-.4-.67-.27-1.18-.73-1.55-1.4-.37-.67-.55-1.61-.55-2.82v-22.9h8.9v-9.85h-8.9v-11.33h-13.11v11.33h-6.46v9.85h6.46v24.63c-.02,3.1.63,5.66,1.94,7.7s3.16,3.53,5.53,4.49,5.14,1.38,8.3,1.26c1.7-.06,3.15-.23,4.34-.51Z"/><path class="cls-2" d="M407.06,18.85c-2.65,0-4.99.75-7.02,2.26-2.03,1.51-3.48,3.73-4.34,6.66h-.49v-8.25h-12.71v47.28h13.11v-26.75c0-1.93.44-3.63,1.31-5.11.87-1.48,2.06-2.63,3.57-3.46,1.51-.83,3.23-1.25,5.16-1.25.9,0,1.9.07,2.99.22,1.09.14,1.94.31,2.55.49v-11.64c-.57-.14-1.24-.26-2-.34-.76-.08-1.47-.12-2.12-.12Z"/><path class="cls-2" d="M420.23,66.11c2.36,1.06,5.05,1.58,8.06,1.58,2.34,0,4.4-.31,6.19-.94,1.79-.63,3.31-1.5,4.59-2.62s2.29-2.42,3.05-3.89h.37v6.56h12.44v-31.89c0-2.81-.54-5.23-1.63-7.25s-2.57-3.68-4.45-4.97-4.02-2.25-6.43-2.86-4.93-.92-7.56-.92c-3.78,0-7.1.57-9.96,1.71s-5.2,2.76-7,4.86c-1.81,2.1-3.02,4.59-3.63,7.46l12.13.99c.45-1.56,1.38-2.86,2.77-3.89s3.27-1.55,5.63-1.55c2.24,0,3.97.53,5.19,1.6,1.22,1.07,1.83,2.58,1.83,4.53v.19c0,1.01-.38,1.77-1.14,2.28-.76.51-1.98.9-3.66,1.15-1.68.26-3.9.53-6.65.82-2.34.23-4.57.62-6.7,1.17s-4.02,1.38-5.68,2.46c-1.66,1.09-2.98,2.52-3.94,4.31-.96,1.79-1.45,3.99-1.45,6.62,0,3.12.68,5.72,2.05,7.8,1.37,2.08,3.23,3.65,5.59,4.71ZM426.07,50.08c.64-.83,1.53-1.49,2.68-1.98,1.15-.49,2.49-.85,4.03-1.08.72-.1,1.52-.22,2.4-.35.88-.13,1.76-.29,2.65-.46.88-.17,1.68-.37,2.39-.58s1.27-.46,1.68-.72v5.02c0,1.66-.42,3.15-1.26,4.46s-2,2.36-3.48,3.12c-1.48.77-3.18,1.15-5.11,1.15s-3.67-.47-4.97-1.4c-1.3-.93-1.95-2.29-1.95-4.08,0-1.23.32-2.26.95-3.09Z"/><rect class="cls-2" x="462.68" y="3.76" width="13.11" height="63.04"/><path class="cls-2" d="M490.16.16c-1.93,0-3.59.65-4.99,1.96s-2.09,2.86-2.09,4.66.7,3.39,2.09,4.7,3.07,1.96,5.02,1.96,3.62-.65,5-1.96c1.39-1.3,2.08-2.87,2.08-4.7s-.69-3.36-2.08-4.66c-1.38-1.3-3.06-1.96-5.03-1.96Z"/><rect class="cls-2" x="483.57" y="19.52" width="13.11" height="47.28"/><path class="cls-2" d="M524.39,66.76c1.79-.63,3.31-1.5,4.59-2.62s2.29-2.42,3.05-3.89h.37v6.56h12.44v-31.89c0-2.81-.54-5.23-1.63-7.25s-2.57-3.68-4.45-4.97-4.02-2.25-6.43-2.86-4.93-.92-7.56-.92c-3.78,0-7.1.57-9.96,1.71-2.86,1.14-5.2,2.76-7,4.86s-3.02,4.59-3.63,7.46l12.13.99c.45-1.56,1.38-2.86,2.77-3.89s3.27-1.55,5.63-1.55c2.24,0,3.96.53,5.19,1.6,1.22,1.07,1.83,2.58,1.83,4.53v.19c0,1.01-.38,1.77-1.14,2.28-.76.51-1.98.9-3.66,1.15-1.68.26-3.9.53-6.65.82-2.34.23-4.57.62-6.7,1.17-2.12.55-4.02,1.38-5.68,2.46-1.66,1.09-2.98,2.52-3.94,4.31s-1.45,3.99-1.45,6.62c0,3.12.68,5.72,2.05,7.8,1.37,2.08,3.23,3.65,5.59,4.71,2.36,1.06,5.05,1.58,8.06,1.58,2.34,0,4.4-.31,6.19-.94ZM515.03,53.17c0-1.23.32-2.26.95-3.09.64-.83,1.53-1.49,2.68-1.98,1.15-.49,2.49-.85,4.03-1.08.72-.1,1.52-.22,2.4-.35.88-.13,1.76-.29,2.65-.46.88-.17,1.68-.37,2.39-.58s1.27-.46,1.68-.72v5.02c0,1.66-.42,3.15-1.26,4.46-.84,1.31-2,2.36-3.48,3.12s-3.18,1.15-5.11,1.15-3.67-.47-4.97-1.4c-1.3-.93-1.96-2.29-1.96-4.08Z"/><path class="cls-2" d="M580.59,32.25c1.5,1.63,2.24,3.89,2.22,6.79v27.77h13.11v-30.11c0-3.67-.68-6.84-2.03-9.5-1.35-2.66-3.25-4.71-5.69-6.14-2.44-1.44-5.31-2.16-8.59-2.16-3.51,0-6.5.81-8.96,2.42-2.46,1.61-4.22,3.79-5.26,6.54h-.55v-8.34h-12.5v47.28h13.11v-27.33c.02-2.03.41-3.77,1.15-5.22s1.8-2.55,3.14-3.31c1.34-.76,2.9-1.14,4.66-1.14,2.63,0,4.69.81,6.19,2.45Z"/><polygon class="cls-2" points="227.1 129.37 226.36 129.37 209 87.01 192.56 87.01 192.56 150.05 205.49 150.05 205.49 108.87 206.02 108.87 222.33 149.75 231.13 149.75 247.45 109.02 247.97 109.02 247.97 150.05 260.9 150.05 260.9 87.01 244.46 87.01 227.1 129.37"/><rect class="cls-2" x="269.71" y="102.77" width="13.11" height="47.28"/><path class="cls-2" d="M276.29,83.41c-1.93,0-3.59.65-4.99,1.96-1.4,1.3-2.09,2.86-2.09,4.66s.7,3.39,2.09,4.7c1.4,1.3,3.07,1.96,5.02,1.96s3.62-.65,5-1.96c1.39-1.3,2.08-2.87,2.08-4.7s-.69-3.36-2.08-4.66c-1.38-1.3-3.06-1.96-5.03-1.96Z"/><rect class="cls-2" x="291.38" y="87.01" width="13.11" height="63.04"/><path class="cls-2" d="M319.64,83.41c-1.93,0-3.59.65-4.99,1.96s-2.09,2.86-2.09,4.66.7,3.39,2.09,4.7,3.07,1.96,5.02,1.96,3.62-.65,5-1.96c1.38-1.3,2.08-2.87,2.08-4.7s-.69-3.36-2.08-4.66c-1.39-1.3-3.06-1.96-5.03-1.96Z"/><rect class="cls-2" x="313.05" y="102.77" width="13.11" height="47.28"/><path class="cls-2" d="M357.51,139.97c-.62.11-1.23.17-1.85.17-.88,0-1.66-.13-2.32-.4-.67-.27-1.19-.73-1.55-1.4-.37-.67-.55-1.61-.55-2.82v-22.9h8.9v-9.85h-8.9v-11.33h-13.11v11.33h-6.46v9.85h6.46v24.63c-.02,3.1.63,5.66,1.94,7.7s3.16,3.53,5.53,4.49,5.14,1.38,8.3,1.26c1.7-.06,3.15-.23,4.34-.51s2.11-.52,2.77-.72l-2.06-9.76c-.33.06-.8.15-1.42.26Z"/><path class="cls-2" d="M400.87,105.94c-1.88-1.29-4.02-2.25-6.43-2.86s-4.93-.92-7.56-.92c-3.78,0-7.1.57-9.96,1.71-2.86,1.14-5.2,2.76-7,4.86s-3.02,4.59-3.63,7.46l12.13.99c.45-1.56,1.38-2.86,2.77-3.89s3.27-1.55,5.63-1.55c2.24,0,3.96.53,5.19,1.6,1.22,1.07,1.83,2.58,1.83,4.53v.19c0,1.01-.38,1.77-1.14,2.28-.76.51-1.98.9-3.66,1.15-1.68.26-3.9.53-6.65.82-2.34.23-4.57.62-6.7,1.17-2.12.55-4.02,1.38-5.68,2.46-1.66,1.09-2.98,2.52-3.94,4.31s-1.45,3.99-1.45,6.62c0,3.12.68,5.72,2.05,7.8,1.37,2.08,3.23,3.65,5.59,4.71,2.36,1.06,5.05,1.58,8.06,1.58,2.34,0,4.4-.31,6.19-.94,1.79-.63,3.31-1.5,4.59-2.62s2.29-2.42,3.05-3.89h.37v6.56h12.44v-31.89c0-2.81-.54-5.23-1.63-7.25s-2.57-3.68-4.45-4.97ZM393.93,133.16c0,1.66-.42,3.15-1.26,4.46-.84,1.31-2,2.36-3.48,3.12s-3.18,1.15-5.11,1.15-3.67-.47-4.97-1.4c-1.3-.93-1.96-2.29-1.96-4.08,0-1.23.32-2.26.95-3.09.64-.83,1.53-1.49,2.68-1.98,1.15-.49,2.49-.85,4.03-1.08.72-.1,1.52-.22,2.4-.35.88-.13,1.76-.29,2.65-.46.88-.17,1.68-.37,2.39-.58s1.27-.46,1.68-.72v5.02Z"/><path class="cls-2" d="M439.01,102.09c-2.65,0-4.99.75-7.02,2.26-2.03,1.51-3.48,3.73-4.34,6.66h-.49v-8.25h-12.71v47.28h13.11v-26.75c0-1.93.44-3.63,1.31-5.11.87-1.48,2.06-2.63,3.57-3.46,1.51-.83,3.23-1.25,5.16-1.25.9,0,1.9.07,2.99.22,1.09.14,1.94.31,2.55.49v-11.64c-.57-.14-1.24-.26-2-.34-.76-.08-1.47-.12-2.12-.12Z"/><path class="cls-2" d="M470.71,137.5h-.49l-9.79-34.72h-13.79l16.96,48.64-.77,2c-.92,2.13-2.18,3.37-3.77,3.71-1.59.34-3.54.15-5.86-.57l-2.96,9.82c.94.37,2.14.68,3.59.94,1.45.26,3,.38,4.66.38,3.24,0,6.01-.52,8.31-1.55,2.3-1.04,4.2-2.49,5.71-4.37,1.51-1.88,2.7-4.08,3.59-6.6l18.38-52.33-13.88-.06-9.88,34.72Z"/><path class="cls-2" d="M559.35,119.36c-2.1-1.25-4.36-1.93-6.76-2.03v-.62c2.2-.49,4.15-1.33,5.86-2.51s3.06-2.7,4.05-4.56c.99-1.86,1.48-4.02,1.48-6.48,0-3.16-.78-5.96-2.34-8.39-1.56-2.43-3.89-4.34-6.99-5.71s-6.97-2.06-11.61-2.06h-25.24v63.04h26.93c4.72,0,8.69-.76,11.91-2.28s5.66-3.59,7.31-6.2c1.65-2.62,2.48-5.6,2.48-8.94,0-3.1-.66-5.77-1.97-8.02-1.31-2.25-3.02-4-5.13-5.25ZM531.14,97.78h10.13c2.96,0,5.24.7,6.85,2.09,1.61,1.4,2.42,3.23,2.42,5.51,0,1.66-.42,3.09-1.25,4.28-.83,1.19-1.96,2.11-3.39,2.76s-3.05.97-4.88.97h-9.88v-15.61ZM550.13,137.02c-1.7,1.43-4.41,2.14-8.13,2.14h-10.87v-16.75h11.17c2.13,0,3.98.38,5.53,1.14,1.55.76,2.74,1.81,3.59,3.14s1.26,2.87,1.26,4.62c0,2.38-.85,4.28-2.56,5.71Z"/><path class="cls-2" d="M606.63,105.94c-1.88-1.29-4.02-2.25-6.43-2.86s-4.93-.92-7.56-.92c-3.78,0-7.1.57-9.96,1.71-2.86,1.14-5.2,2.76-7,4.86s-3.02,4.59-3.63,7.46l12.13.99c.45-1.56,1.38-2.86,2.77-3.89s3.27-1.55,5.63-1.55c2.24,0,3.96.53,5.19,1.6,1.22,1.07,1.83,2.58,1.83,4.53v.19c0,1.01-.38,1.77-1.14,2.28-.76.51-1.98.9-3.66,1.15-1.68.26-3.9.53-6.65.82-2.34.23-4.57.62-6.7,1.17-2.12.55-4.02,1.38-5.68,2.46-1.66,1.09-2.98,2.52-3.94,4.31s-1.45,3.99-1.45,6.62c0,3.12.68,5.72,2.05,7.8,1.37,2.08,3.23,3.65,5.59,4.71,2.36,1.06,5.05,1.58,8.06,1.58,2.34,0,4.4-.31,6.19-.94,1.79-.63,3.31-1.5,4.59-2.62s2.29-2.42,3.05-3.89h.37v6.56h12.44v-31.89c0-2.81-.54-5.23-1.63-7.25s-2.57-3.68-4.45-4.97ZM599.69,133.16c0,1.66-.42,3.15-1.26,4.46-.84,1.31-2,2.36-3.48,3.12s-3.18,1.15-5.11,1.15-3.67-.47-4.97-1.4c-1.3-.93-1.96-2.29-1.96-4.08,0-1.23.32-2.26.95-3.09.64-.83,1.53-1.49,2.68-1.98,1.15-.49,2.49-.85,4.03-1.08.72-.1,1.52-.22,2.4-.35.88-.13,1.76-.29,2.65-.46.88-.17,1.68-.37,2.39-.58s1.27-.46,1.68-.72v5.02Z"/><path class="cls-2" d="M655.72,104.31c-2.44-1.44-5.31-2.16-8.59-2.16-3.51,0-6.5.81-8.96,2.42-2.46,1.61-4.22,3.79-5.26,6.54h-.55v-8.34h-12.5v47.28h13.11v-27.33c.02-2.03.41-3.77,1.15-5.22s1.8-2.55,3.14-3.31c1.34-.76,2.9-1.14,4.66-1.14,2.63,0,4.69.81,6.19,2.45,1.5,1.63,2.24,3.89,2.22,6.79v27.77h13.11v-30.11c0-3.67-.68-6.84-2.03-9.5-1.36-2.66-3.25-4.71-5.7-6.14Z"/><polygon class="cls-2" points="700.19 150.05 715.55 150.05 697.12 123.25 714.66 102.77 699.61 102.77 684.46 120.72 683.75 120.72 683.75 87.01 670.64 87.01 670.64 150.05 683.75 150.05 683.75 135.04 687.31 130.98 700.19 150.05"/></svg>